<svg width="800" height="520" viewBox="0 0 800 520" fill="none" xmlns="http://www.w3.org/2000/svg">
  <rect width="800" height="520" rx="32" fill="#F3E8FF"/>
  <rect x="42" y="42" width="716" height="436" rx="28" fill="#172554"/>
  <text x="88" y="96" fill="#F8FAFC" font-family="Arial, sans-serif" font-size="34" font-weight="700">Lighting Accessories</text>
  <rect x="106" y="150" width="178" height="178" rx="28" fill="#7C3AED"/>
  <circle cx="196" cy="240" r="46" fill="#E9D5FF"/>
  <circle cx="196" cy="240" r="18" fill="#A78BFA"/>
  <rect x="332" y="134" width="162" height="194" rx="28" fill="#5B21B6"/>
  <rect x="366" y="176" width="94" height="34" rx="17" fill="#DDD6FE"/>
  <rect x="356" y="232" width="114" height="18" rx="9" fill="#C4B5FD"/>
  <rect x="356" y="264" width="114" height="18" rx="9" fill="#C4B5FD"/>
  <rect x="536" y="160" width="142" height="142" rx="28" fill="#6D28D9"/>
  <path d="M566 248L602 194L648 256" stroke="#E9D5FF" stroke-width="18" stroke-linecap="round" stroke-linejoin="round"/>
  <path d="M120 392H676" stroke="#A78BFA" stroke-width="18" stroke-linecap="round"/>
  <path d="M188 430H608" stroke="#8B5CF6" stroke-width="18" stroke-linecap="round"/>
</svg>
