<svg width="800" height="520" viewBox="0 0 800 520" fill="none" xmlns="http://www.w3.org/2000/svg">
  <rect width="800" height="520" rx="32" fill="#FEF3C7"/>
  <rect x="42" y="42" width="716" height="436" rx="28" fill="#1F2937"/>
  <text x="88" y="96" fill="#F8FAFC" font-family="Arial, sans-serif" font-size="34" font-weight="700">Professional Lighting Cables</text>
  <circle cx="592" cy="176" r="66" fill="#F59E0B"/>
  <circle cx="592" cy="176" r="34" fill="#FEF3C7"/>
  <path d="M548 264C510 296 484 336 470 382" stroke="#FBBF24" stroke-width="22" stroke-linecap="round"/>
  <path d="M470 382C428 368 386 362 344 364" stroke="#F59E0B" stroke-width="22" stroke-linecap="round"/>
  <path d="M344 364C294 366 250 384 208 426" stroke="#FBBF24" stroke-width="22" stroke-linecap="round"/>
  <circle cx="194" cy="438" r="26" fill="#F8FAFC"/>
  <rect x="122" y="148" width="226" height="126" rx="24" fill="#92400E"/>
  <rect x="152" y="180" width="166" height="24" rx="12" fill="#FDE68A"/>
  <rect x="152" y="220" width="112" height="16" rx="8" fill="#FCD34D"/>
  <rect x="382" y="328" width="96" height="68" rx="18" fill="#78350F"/>
  <rect x="398" y="344" width="64" height="36" rx="10" fill="#FCD34D"/>
</svg>
