<svg width="800" height="520" viewBox="0 0 800 520" fill="none" xmlns="http://www.w3.org/2000/svg">
  <rect width="800" height="520" rx="32" fill="#E0F2FE"/>
  <rect x="42" y="42" width="716" height="436" rx="28" fill="#0F172A"/>
  <rect x="88" y="126" width="232" height="34" rx="17" fill="#1D4ED8"/>
  <rect x="88" y="182" width="170" height="18" rx="9" fill="#93C5FD"/>
  <rect x="88" y="214" width="208" height="18" rx="9" fill="#93C5FD"/>
  <rect x="88" y="246" width="144" height="18" rx="9" fill="#93C5FD"/>
  <path d="M464 149C464 128.013 481.013 111 502 111H635C655.987 111 673 128.013 673 149V315H464V149Z" fill="#2563EB"/>
  <rect x="482" y="135" width="173" height="136" rx="20" fill="#DBEAFE"/>
  <rect x="501" y="160" width="24" height="88" rx="8" fill="#60A5FA"/>
  <rect x="538" y="160" width="24" height="88" rx="8" fill="#60A5FA"/>
  <rect x="575" y="160" width="24" height="88" rx="8" fill="#60A5FA"/>
  <path d="M497 315H641V357C641 376.882 624.882 393 605 393H533C513.118 393 497 376.882 497 357V315Z" fill="#1E3A8A"/>
  <path d="M165 365C220 325 302 323 356 365" stroke="#38BDF8" stroke-width="20" stroke-linecap="round"/>
  <path d="M178 390C230 350 292 352 340 390" stroke="#0EA5E9" stroke-width="20" stroke-linecap="round"/>
  <circle cx="154" cy="404" r="28" fill="#F8FAFC"/>
  <circle cx="350" cy="404" r="28" fill="#F8FAFC"/>
  <text x="88" y="96" fill="#F8FAFC" font-family="Arial, sans-serif" font-size="34" font-weight="700">Network Cables</text>
</svg>
